#!OML:ASF F:\VICON\USERDATA\INSTALL\rory3\rory3.ASF
:FULLY-SPECIFIED
:DEGREES
951
root -0.126668 19.7666 10.3013 2.13638 1.5062 -353.623
lowerback 1.19211 -2.89586 -5.19155
upperback -0.0190641 -3.92486 1.82758
thorax -0.210239 -1.9597 4.83194
lowerneck -14.2719 1.46439 -9.41636
upperneck 40.1796 5.22448 0.357332
head 16.7619 0.740678 2.7552
rclavicle 0 -2.22639e-014
rhumerus -39.5819 -6.27752 -72.7892
rradius 38.2046
rwrist 16.5797
rhand -21.0581 2.76305
rfingers 7.12502
rthumb 5.31825 -27.1502
lclavicle 0 -2.22639e-014
lhumerus -36.9277 6.69404 82.0384
lradius 33.4432
lwrist -1.85789
lhand -13.8849 26.6194
lfingers 7.12502
lthumb 12.2401 56.2412
rfemur -24.5346 1.46018 15.4071
rtibia 30.0643
rfoot 18.2738 -17.6382
rtoes 25.0652
lfemur -3.79584 4.15069 -34.2958
ltibia 42.4147
lfoot -21.874 -4.37044
ltoes 13.1063
952
root -0.132071 19.6627 10.4192 2.16329 1.71398 -353.521
lowerback 1.18916 -2.93175 -5.35751
upperback -0.108312 -3.97666 1.75083
thorax -0.288609 -1.98078 4.84838
lowerneck -14.478 1.24842 -9.82496
upperneck 40.0969 4.96619 0.572354
head 16.7684 0.602989 2.88114
rclavicle -7.90169e-015 4.77083e-015
rhumerus -39.8418 -6.35676 -72.7995
rradius 38.1743
rwrist 16.4268
rhand -21.1685 2.50249
rfingers 7.12502
rthumb 5.21164 -27.4134
lclavicle -7.90169e-015 4.77083e-015
lhumerus -36.736 6.08387 82.0152
lradius 33.7579
lwrist -1.80417
lhand -13.0481 27.3427
lfingers 7.12502
lthumb 13.0468 56.9146
rfemur -23.7205 1.20892 15.8097
rtibia 28.8829
rfoot 19.3582 -18.3339
rtoes 24.4963
lfemur -4.50412 4.54531 -34.232
ltibia 44.8614
lfoot -22.0369 -4.33846
ltoes 12.4024
953
root -0.139851 19.5499 10.5318 2.07829 1.89559 -353.539
lowerback 1.44634 -2.93476 -5.45037
upperback -0.215713 -3.99769 1.73168
thorax -0.536097 -1.9807 4.9
lowerneck -14.7304 1.0575 -10.3413
upperneck 40.0792 4.68194 1.06558
head 16.8071 0.474529 3.14906
rclavicle 2.04251e-014 -1.59028e-014
rhumerus -40.3838 -6.17657 -72.7746
rradius 38.4489
rwrist 16.058
rhand -21.0779 2.34121
rfingers 7.12502
rthumb 5.29913 -27.5725
lclavicle 2.04251e-014 -1.59028e-014
lhumerus -36.6534 5.63193 82.0004
lradius 34.1275
lwrist -1.83866
lhand -13.0118 27.4617
lfingers 7.12502
lthumb 13.0819 57.0314
rfemur -22.9105 1.09912 16.3229
rtibia 28.1984
rfoot 20.4448 -18.5321
rtoes 24.7507
lfemur -5.26504 5.15724 -33.9659
ltibia 47.5971
lfoot -22.0172 -4.40158
ltoes 10.8733
954
root -0.148596 19.4197 10.6408 2.0304 2.00199 -353.499
lowerback 1.59955 -2.89604 -5.59894
upperback -0.285542 -3.95885 1.67938
thorax -0.69273 -1.9539 4.94085
lowerneck -14.7707 1.01724 -10.2537
upperneck 39.8765 4.56294 1.12382
head 16.7127 0.459429 3.13411
rclavicle 3.16068e-014 3.97569e-015
rhumerus -40.9382 -6.15856 -72.7072
rradius 38.7474
rwrist 15.8713
rhand -20.8646 2.39111
rfingers 7.12502
rthumb 5.50507 -27.5174
lclavicle 3.16068e-014 3.97569e-015
lhumerus -36.5006 5.22917 81.9326
lradius 34.4646
lwrist -1.89236
lhand -13.128 27.182
lfingers 7.12502
lthumb 12.9698 56.7589
rfemur -22.1935 0.975094 16.7658
rtibia 27.9609
rfoot 21.0098 -18.6217
rtoes 26.219
lfemur -6.284 5.87377 -33.7522
ltibia 50.6393
lfoot -21.9256 -4.55718
ltoes 8.94775
955
root -0.154714 19.272 10.7483 2.07095 1.95127 -353.379
lowerback 1.46766 -2.8147 -5.80524
upperback -0.239147 -3.8466 1.58299
thorax -0.578311 -1.90175 4.94687
lowerneck -14.9982 0.961042 -9.92759
upperneck 39.6609 4.50214 0.851669
head 16.6779 0.454193 2.94499
rclavicle -1.86361e-014 1.11319e-014
rhumerus -41.1419 -6.35016 -72.686
rradius 38.8257
rwrist 15.912
rhand -20.7336 2.52668
rfingers 7.12502
rthumb 5.63152 -27.3785
lclavicle -1.86361e-014 1.11319e-014
lhumerus -36.0877 4.80208 81.8517
lradius 34.8108
lwrist -1.41927
lhand -13.3522 26.7618
lfingers 7.12502
lthumb 12.7537 56.3523
rfemur -21.5665 0.809035 17.0883
rtibia 28.0618
rfoot 19.2835 -17.277
rtoes 23.1749
lfemur -7.59321 6.70377 -33.6641
ltibia 53.9569
lfoot -21.7294 -4.96458
ltoes 7.79105
956
root -0.159221 19.1251 10.8582 2.0154 1.85247 -353.431
lowerback 1.39325 -2.70476 -5.85888
upperback -0.163627 -3.69512 1.55195
thorax -0.476682 -1.83098 4.93776
lowerneck -15.1273 0.862699 -9.93432
upperneck 39.3556 4.37286 0.814783
head 16.5578 0.410894 2.90174
rclavicle -5.41688e-015 1.74931e-014
rhumerus -41.2908 -6.46649 -72.6511
rradius 38.8174
rwrist 15.9424
rhand -20.6535 2.56783
rfingers 7.12502
rthumb 5.7089 -27.3353
lclavicle -5.41688e-015 1.74931e-014
lhumerus -35.6407 4.33919 81.833
lradius 35.1455
lwrist -0.874323
lhand -13.5553 26.6298
lfingers 7.12502
lthumb 12.5579 56.2323
rfemur -20.8124 0.734551 17.5237
rtibia 28.5093
rfoot 16.7153 -14.2861
rtoes 17.1059
lfemur -8.9487 7.63575 -33.323
ltibia 57.3981
lfoot -21.3259 -5.63109
ltoes 7.2804
957
root -0.166335 18.9708 10.9672 1.83572 1.93646 -353.778
lowerback 1.53813 -2.61533 -5.5748
upperback -0.122876 -3.57806 1.57137
thorax -0.546838 -1.77187 4.80456
lowerneck -14.7942 0.877155 -9.87503
upperneck 38.7674 4.29083 0.828266
head 16.1682 0.427804 2.85849
rclavicle 2.6339e-015 6.36111e-015
rhumerus -41.6056 -6.52919 -72.6555
rradius 38.9023
rwrist 15.8627
rhand -20.686 2.49489
rfingers 7.12502
rthumb 5.67753 -27.4091
lclavicle 2.6339e-015 6.36111e-015
lhumerus -35.3281 3.64612 81.8596
lradius 35.5308
lwrist -0.707052
lhand -13.7521 26.5739
lfingers 7.12502
lthumb 12.3681 56.188
rfemur -19.944 0.678468 18.2122
rtibia 29.1663
rfoot 13.6631 -9.99107
rtoes 17.6312
lfemur -10.1652 8.54232 -32.5415
ltibia 60.8288
lfoot -20.9761 -6.08329
ltoes 4.13131
958
root -0.174386 18.817 11.075 1.49644 2.28559 -353.97
lowerback 1.92882 -2.63861 -5.45061
upperback -0.0707861 -3.62715 1.55234
thorax -0.714884 -1.7927 4.73494
lowerneck -14.78 0.808941 -9.90188
upperneck 38.3807 4.13615 0.923597
head 15.9693 0.395301 2.86737
rclavicle -3.61291e-014 -7.95139e-015
rhumerus -41.8455 -6.58578 -72.6921
rradius 38.8469
rwrist 15.9228
rhand -20.7787 2.50192
rfingers 7.12502
rthumb 5.58797 -27.4044
lclavicle -3.61291e-014 -7.95139e-015
lhumerus -35.0317 3.18533 81.7865
lradius 35.9422
lwrist -0.932735
lhand -13.6051 26.8219
lfingers 7.12502
lthumb 12.5099 56.4274
rfemur -19.0157 0.482854 18.6642
rtibia 29.9059
rfoot 10.6183 -5.61252
rtoes 9.49814
lfemur -11.0885 9.15402 -31.8633
ltibia 64.0814
lfoot -20.6116 -6.35735
ltoes -0.44776
959
root -0.18179 18.6757 11.1834 1.01815 2.82463 -354.096
lowerback 2.59495 -2.74634 -5.44513
upperback -0.0668047 -3.80658 1.56587
thorax -1.06174 -1.87149 4.78606
lowerneck -15.0371 0.742993 -9.88571
upperneck 38.3441 4.06972 0.917284
head 16.0188 0.367466 2.85557
rclavicle 3.18055e-014 4.77083e-015
rhumerus -42.1726 -6.45256 -72.6945
rradius 38.9135
rwrist 16.0161
rhand -20.7167 2.46692
rfingers 7.12502
rthumb 5.64791 -27.4378
lclavicle 3.18055e-014 4.77083e-015
lhumerus -34.8128 3.04935 81.6738
lradius 36.3255
lwrist -1.23287
lhand -13.3922 27.1336
lfingers 7.12502
lthumb 12.7151 56.7264
rfemur -18.108 0.319175 18.9813
rtibia 30.72
rfoot 7.39388 -4.0171
rtoes 7.72574
lfemur -11.8222 9.39803 -31.1991
ltibia 67.1023
lfoot -19.9064 -7.02626
ltoes -3.42635
960
root -0.191901 18.5311 11.2874 0.53034 3.30261 -354.361
lowerback 3.3552 -2.79046 -5.29039
upperback -0.114431 -3.90082 1.59081
thorax -1.53403 -1.90308 4.77436
lowerneck -15.3217 0.645339 -9.796
upperneck 38.4779 3.98206 0.818906
head 16.1713 0.318712 2.79266
rclavicle 1.81888e-014 -3.97569e-015
rhumerus -42.6096 -6.32409 -72.7133
rradius 39.1003
rwrist 15.9588
rhand -20.5881 2.41684
rfingers 7.12502
rthumb 5.77206 -27.4845
lclavicle 1.81888e-014 -3.97569e-015
lhumerus -34.6682 2.7882 81.6054
lradius 36.6878
lwrist -1.32741
lhand -13.5208 27.1625
lfingers 7.12502
lthumb 12.5911 56.763
rfemur -17.3354 0.247968 19.4493
rtibia 31.5979
rfoot 4.43172 -2.75869
rtoes 7.75308
lfemur -12.5741 9.65515 -30.33
ltibia 69.915
lfoot -19.2947 -8.24545
ltoes -5.41544
961
root -0.200447 18.3871 11.3885 0.18575 3.62377 -354.709
lowerback 3.85536 -2.76497 -5.01718
upperback -0.0925508 -3.87935 1.61956
thorax -1.81022 -1.88607 4.67972
lowerneck -15.2737 0.528309 -9.77446
upperneck 38.1362 3.77285 0.822388
head 15.9979 0.255001 2.74485
rclavicle -7.32522e-014 0
rhumerus -42.7413 -6.48456 -72.727
rradius 39.0064
rwrist 16.0751
rhand -20.6799 2.39803
rfingers 7.12502
rthumb 5.68343 -27.5057
lclavicle -7.32522e-014 0
lhumerus -34.2685 2.53804 81.5561
lradius 36.9736
lwrist -1.36278
lhand -13.6936 27.1633
lfingers 7.12502
lthumb 12.4245 56.774
rfemur -16.8008 0.0664571 20.0167
rtibia 32.4564
rfoot 1.83455 -1.84228
rtoes 9.13725
lfemur -13.417 10.0642 -29.38
ltibia 72.473
lfoot -19.0117 -9.41901
ltoes -6.66637
